<svg width="13" height="9" viewBox="0 0 13 9" fill="none" xmlns="http://www.w3.org/2000/svg">
<path d="M11.6512 1.80273L6.72697 6.72697C6.65773 6.79614 6.56386 6.83498 6.46599 6.83498C6.36812 6.83498 6.27425 6.79614 6.205 6.72697L1.28076 1.80273C1.21553 1.73272 1.18001 1.64012 1.1817 1.54444C1.18339 1.44877 1.22215 1.35748 1.28981 1.28981C1.35748 1.22215 1.44877 1.18339 1.54444 1.1817C1.64012 1.18001 1.73272 1.21553 1.80273 1.28076L6.46599 5.9434L11.1292 1.28076C11.1993 1.21553 11.2919 1.18001 11.3875 1.1817C11.4832 1.18339 11.5745 1.22215 11.6422 1.28981C11.7098 1.35748 11.7486 1.44877 11.7503 1.54444C11.752 1.64012 11.7165 1.73272 11.6512 1.80273Z" stroke="white" stroke-width="1.5"/>
</svg>
