<svg width="18" height="18" viewBox="0 0 18 18" fill="none" xmlns="http://www.w3.org/2000/svg">
<g clip-path="url(#clip0_1746_193)">
<path d="M9 0C10.78 0 12.5201 0.527841 14.0001 1.51677C15.4802 2.50571 16.6337 3.91131 17.3149 5.55585C17.9961 7.20038 18.1743 9.00998 17.8271 10.7558C17.4798 12.5016 16.6226 14.1053 15.364 15.364C14.1053 16.6226 12.5016 17.4798 10.7558 17.8271C9.00998 18.1743 7.20038 17.9961 5.55585 17.3149C3.91131 16.6337 2.50571 15.4802 1.51677 14.0001C0.527841 12.5201 2.1091e-07 10.78 2.1091e-07 9C0.00252005 6.61382 0.951541 4.3261 2.63882 2.63882C4.3261 0.95154 6.61382 0.00251984 9 0ZM16.6154 9C16.6131 6.98098 15.81 5.0453 14.3824 3.61764C12.9547 2.18997 11.019 1.38691 9 1.38462V16.6154C11.019 16.6131 12.9547 15.81 14.3824 14.3824C15.81 12.9547 16.6131 11.019 16.6154 9Z" fill="white"/>
</g>
<defs>
<clipPath id="clip0_1746_193">
<rect width="18" height="18" fill="white" transform="matrix(-1 0 0 1 18 0)"/>
</clipPath>
</defs>
</svg>
